/* XPM */
static char *result[] = {
/* columns rows colors chars-per-pixel */
"32 32 167 2 ",
"   c #352521",
".  c #352522",
"X  c #402B24",
"o  c #412B24",
"O  c #472B25",
"+  c #482B25",
"@  c #4F2D25",
"#  c #4F2E25",
"$  c #582E26",
"%  c #4A3027",
"&  c #5A3027",
"*  c #5A3127",
"=  c #5F3127",
"-  c #52332A",
";  c #5B3228",
":  c #5F3329",
">  c #5B3428",
",  c #5A362B",
"<  c #5E3429",
"1  c #5D382C",
"2  c #633328",
"3  c #65372A",
"4  c #63372D",
"5  c #6A3629",
"6  c #633B2E",
"7  c #6E3A2B",
"8  c #743A2B",
"9  c #763A2C",
"0  c #733F2E",
"q  c #753C2D",
"w  c #773D2C",
"e  c #793C2C",
"r  c #793D2D",
"t  c #7D3E2C",
"y  c #6C3E30",
"u  c #624037",
"i  c #794331",
"p  c #784132",
"a  c #7D4331",
"s  c #78493B",
"d  c #7C4B3B",
"f  c #7B4D3B",
"g  c #76584D",
"h  c #7B5C50",
"j  c #77645B",
"k  c #833D2D",
"l  c #8A3F33",
"z  c #80402F",
"x  c #81442C",
"c  c #89432F",
"v  c #834030",
"b  c #8B4530",
"n  c #8E4430",
"m  c #9C4531",
"M  c #9D4632",
"N  c #934831",
"B  c #954930",
"V  c #974930",
"C  c #974932",
"Z  c #934C33",
"A  c #9E4C32",
"S  c #9E4C33",
"D  c #934C3C",
"F  c #9F5035",
"G  c #A04E33",
"H  c #A14A35",
"J  c #A14C36",
"K  c #A64F34",
"L  c #A64C36",
"P  c #A44E36",
"I  c #A84B34",
"U  c #A94D34",
"Y  c #A65134",
"T  c #A95133",
"R  c #A85035",
"E  c #AA5034",
"W  c #AB5034",
"Q  c #AC5134",
"!  c #A05039",
"~  c #A65339",
"^  c #A85039",
"/  c #B05435",
"(  c #B25535",
")  c #B35536",
"_  c #B65537",
"`  c #B95536",
"'  c #B55A35",
"]  c #B95836",
"[  c #B95937",
"{  c #B1593A",
"}  c #B15B3E",
"|  c #AE6039",
" . c #BF6236",
".. c #BD6635",
"X. c #C35E37",
"o. c #C35C38",
"O. c #C65E38",
"+. c #C05E3D",
"@. c #C35F3D",
"#. c #C26336",
"$. c #C86637",
"%. c #CB6A37",
"&. c #CC6039",
"*. c #CD6139",
"=. c #CF6439",
"-. c #CE6D38",
";. c #D36A39",
":. c #D46D39",
">. c #D87339",
",. c #DA7639",
"<. c #975441",
"1. c #9E5645",
"2. c #825C51",
"3. c #A15641",
"4. c #A05745",
"5. c #A75943",
"6. c #A35B45",
"7. c #A65B46",
"8. c #A85E43",
"9. c #A95A46",
"0. c #A35B48",
"q. c #A85F4B",
"w. c #B05E44",
"e. c #B05F44",
"r. c #8E6050",
"t. c #936A5A",
"y. c #986D5B",
"u. c #AF6144",
"i. c #B16244",
"p. c #BD6647",
"a. c #BF6647",
"s. c #B0624A",
"d. c #BD6849",
"f. c #BF6B4D",
"g. c #8A7366",
"h. c #927869",
"j. c #A37562",
"k. c #A47762",
"l. c #A67861",
"z. c #AF7C63",
"x. c #B57F67",
"c. c #B87E65",
"v. c #BA7F66",
"b. c #C26947",
"n. c #C76B48",
"m. c #C26C4C",
"M. c #C86B48",
"N. c #CB714D",
"B. c #CA7E5D",
"V. c #9F806E",
"C. c #AE816D",
"Z. c #BD8065",
"A. c #BE8166",
"S. c #B6866D",
"D. c #A88B77",
"F. c #AE8D77",
"G. c #BF8F75",
"H. c #BD8E76",
"J. c #C08266",
"K. c #C08366",
"L. c #C49276",
"P. c #C59276",
"I. c #C89476",
"U. c #C8987C",
"Y. c #BF9D84",
"T. c #C7A186",
"R. c None",
/* pixels */
"R.R.R.R.R.R.R.R.R.R.R.R.R.R.R.R.R.R.R.R.R.R.R.R.R.R.R.R.R.R.R.R.",
"R.R.R.R.R.R.R.R.R.R.R.R.R.R.R.R.R.R.R.R.R.R.R.R.R.R.R.R.R.R.R.R.",
"R.R.R.R.R.R.R.R.R.R.R.R.R.R.R.R.R.R.R.R.R.R.R.R.R.R.R.R.R.R.R.R.",
"R.R.R.R.R.R.R.R.R.R.R.R.R.R.R.R.R.R.R.R.R.R.R.R.R.R.R.R.R.R.R.R.",
"R.R.R.R.R.R.M m m m m M R.R.O + + O R.R.R.R.R.R.R.R.R.R.R.R.R.R.",
"R.R.R.R.R.R.W Q Q Q Q E R.R.: ; ; * R.R.R.R.R.R.R.R.R.R.R.R.R.R.",
"R.R.R.R.M W #.%.%.%.%. .J l v z z q * O R.R.R.R.R.R.R.R.R.R.R.R.",
"R.R.R.R.m Q %.,.>.-...| 6.1.! S C z ; + R.R.R.R.R.R.R.R.R.R.R.R.",
"R.R.R.R.m Q %.>.;.' x f k.v.p.) S z ; + R.R.R.R.R.R.R.R.R.R.R.R.",
"R.R.R.R.m W $.:.=.{ d h F.L.f._ R b < O R.R.R.R.R.R.R.R.R.R.R.R.",
"R.R.R.R.m U X.=.*.b.z.F.Y.H.q.L _ G 3 O O O R.R.R.R.R.R.R.R.R.R.",
"R.R.R.R.M I ` @.M.B.U.T.U.A.9.H K B 7 ; ; * R.R.R.R.R.R.R.R.R.R.",
"R.R.R.R.R.R.I w.J.U.T.U.B.n.+.K e 5 r z z q * O R.R.R.R.R.R.R.R.",
"R.R.R.R.R.R.m 5.Z.L.H.A.n.&.&.T 2 $ c S C z ; + R.R.R.R.R.R.R.R.",
"R.R.R.R.R.R.m ^ a.f.q.9.+.&.&.T 2 = A ) S z ; + R.R.R.R.R.R.R.R.",
"R.R.R.R.R.R.M P } e.0.4.~ T T V 8 t ( ] N q * O R.R.R.R.R.R.R.R.",
"R.R.R.R.R.R.R.R.r.y.C.j.s 2 2 8 V ( o./ w * R.R.R.R.R.R.R.R.R.R.",
"R.R.R.R.R.R.R.R.j g.D.V.g u 4 a i.N.N.u.p & R.R.R.R.R.R.R.R.R.R.",
"R.R.R.R.R.R.R.R.R.R.g.h.V.l.8.i.K.I.I.c.<.9 # . R.R.R.R.R.R.R.R.",
"R.R.R.R.R.R.R.R.R.R.j g.D.S.d.m.P.T.U.J.w.n > X R.R.R.R.R.R.R.R.",
"R.R.R.R.R.R.R.R.R.R.R.R.g.t.3.s.G.U.B.M.@.Y 0 - X . R.R.R.R.R.R.",
"R.R.R.R.R.R.R.R.R.R.R.R.j 2.D 7.x.J.M.O.[ F i , o   R.R.R.R.R.R.",
"R.R.R.R.R.R.R.R.R.R.R.R.R.R.R.R.7.w.@.[ Z i y , o   R.R.R.R.R.R.",
"R.R.R.R.R.R.R.R.R.R.R.R.R.R.R.R.k n Y F i 6 1 - X . R.R.R.R.R.R.",
"R.R.R.R.R.R.R.R.R.R.R.R.R.R.R.R.@ > 0 i y 1 % X R.R.R.R.R.R.R.R.",
"R.R.R.R.R.R.R.R.R.R.R.R.R.R.R.R.. X - , , - X . R.R.R.R.R.R.R.R.",
"R.R.R.R.R.R.R.R.R.R.R.R.R.R.R.R.R.R.X o o X R.R.R.R.R.R.R.R.R.R.",
"R.R.R.R.R.R.R.R.R.R.R.R.R.R.R.R.R.R..     . R.R.R.R.R.R.R.R.R.R.",
"R.R.R.R.R.R.R.R.R.R.R.R.R.R.R.R.R.R.R.R.R.R.R.R.R.R.R.R.R.R.R.R.",
"R.R.R.R.R.R.R.R.R.R.R.R.R.R.R.R.R.R.R.R.R.R.R.R.R.R.R.R.R.R.R.R.",
"R.R.R.R.R.R.R.R.R.R.R.R.R.R.R.R.R.R.R.R.R.R.R.R.R.R.R.R.R.R.R.R.",
"R.R.R.R.R.R.R.R.R.R.R.R.R.R.R.R.R.R.R.R.R.R.R.R.R.R.R.R.R.R.R.R."
};
