/* XPM */
static char *result[] = {
/* columns rows colors chars-per-pixel */
"32 32 7 1 ",
"  c black",
". c #4FB5D2",
"X c #FFF18B",
"o c #C1C1C1",
"O c #F4FDFF",
"+ c white",
"@ c None",
/* pixels */
"@@@@@@@@@@@@@@@@@@@@@@@@@@@@@@@@",
"@@@@@@@@@@@@ @@@@@@@@@@@@@@@@@@@",
"@@@@@@ooo@@@ @@@@@@@@@@@@@@@@@@@",
"@@@@@ooooo@@ @@@@@@@@@@@@@@@@@@@",
"@@@@o     o  @@@@@@@@@@@@@@@@@@@",
"@@@@ O.... @ @@@@@@@@@@@@@@@@@@@",
"@@@@ ..... @ @@@@@@@@@@@@@@@@@@@",
"@@@@o     o@ @@@@@@@@@@@@@@@@@@@",
"@@@@oo   oo@ @@@@@@@@@@@@@@@@@@@",
"@@@@ +       @@@@@@@@@@@@@@@@@@@",
"@@@@ +   + @@@@@@@@@@@@@@@@@@@@@",
"@@@+ +++++ +@@@@@@@@@@@@@@@@@@@@",
"@@++ +++++ ++@@@@@@@@@@@@@@@@@@@",
"@@++ +++++ ++@@@@@@@@@@@@@@@@@@@",
"@@++ +++++ ++@@@@@@@@@@@@@@@@@@@",
"@@++ +++++ ++@@@@@@@@@@@@@@@@@@@",
"@@++       ++@@@@@@@@@@@@@@@@@@@",
"@XXX+++++++XXX@@@@@@@@@@@@@@@@@@",
"@XXX+++++++XXX@@@@@@@@@@@@@@@@@@",
"@@X@+++@+++@X@@@@@@@@@@@@@@@@@@@",
"@@@@++@@@++@@@@@@@@@@@@@@@@@@@@@",
"@@@@++@@@++@@@@@@@@@@@@@@@@@@@@@",
"@@@@++@@@++@@@@@@@@@@@@@@@@@@@@@",
"@@@@++@@@++@@@@@@@@@@@@@@@@@@@@@",
"@@@@++@@@++@@@@@@@@@@@@@@@@@@@@@",
"@@@@++@@@++@@@@@@@@@@@@@@@@@@@@@",
"@@@@ +@@@+ @@@@@@@@@@@@@@@@@@@@@",
"@@@   @@@   @@@@@@@@@@@@@@@@@@@@",
"@@    @@@    @@@@@@@@@@@@@@@@@@@",
"@    @@@@@    @@@@@@@@@@@@@@@@@@",
"    @@@@@@@    @@@@@@@@@@@@@@@@@",
"@@@@@@@@@@@@@@@@@@@@@@@@@@@@@@@@"
};
