/* XPM */
static char *result[] = {
/* columns rows colors chars-per-pixel */
"39 33 8 1 ",
"  c #411100",
". c #672A18",
"X c #732B2E",
"o c #873736",
"O c #944445",
"+ c #B58B00",
"@ c #F0B800",
"# c None",
/* pixels */
"#######################################",
"#######################################",
"#######################################",
"#######################################",
"#######################################",
"#######################################",
"#######@@OOOOOOO@@OOOOOOOO@+++#########",
"######@.XXXXXXX@+.XXXXXXX@+.XX+########",
"#####@oOOOOOOO@+oOOOOOOO@+oOOOO+#######",
"####@oOOOOOOO@+oOOOOOOO@+oOOOOOO+######",
"###@.XXXXXXX@+.XXXXXXX@+.XXXXXXXX+#####",
"###@.XXXXXXX@+.XXXXXXX@+.XXXXXXXX+#####",
"###@.XXXXXXX@+.XXXXXXX@+.XXXXXXXX+#####",
"###@oOOOOOOO@+oOOOOOOO@+oOOOOOOOO+#####",
"###@oOOOOOOO@+oOOOOOOO@+oOOOOOOOO+#####",
"###@@@@@@@@@@@@@@@@@@@@+++++++++++#####",
"###@.XXX@+.XXXXX@+.XXX@+.XXXXXXXX+#####",
"###@oOOO@+oOOOOO@+oOOO@+oOOOOOOOO+#####",
"###@oOOO@+oO@+OO@+oOOO@+oOOOOOOOO+#####",
"###@oOOO@+oO@+OO@+oOOO@+oOOOOOOOO+#####",
"###@.XXX@+.@  +X@+.XXX@+.XXXXXXXX+#####",
"###@.XXX@+.X@+XX@+.XXX@+.XXXXXXXX+#####",
"###@oOOO@+oO@+OO@+oOOO@+oOOOOOOOO+#####",
"###@oOOO@+oOOOOO@+oOOO@+oOOOOOOOO+#####",
"###@.XXX@+.XXXXX@+.XXX@+.XXXXXXXX+#####",
"###@.XXX@+.XXXXX@+.XXX@+.XXXXXXXX+#####",
"###@@@@@@@@@@@@@@@@@@@@+++++++++++#####",
"#######################################",
"#######################################",
"#######################################",
"#######################################",
"#######################################",
"#######################################"
};
