/* XPM */
static char *result[] = {
/* columns rows colors chars-per-pixel */
"32 32 8 1 ",
"  c black",
". c #323141",
"X c #4A4955",
"o c #676575",
"O c #606F79",
"+ c #847E87",
"@ c white",
"# c None",
/* pixels */
"################################",
"################################",
"################################",
"################################",
"################################",
"################################",
"##############....##############",
"#############.OOo.##############",
"############.oOo.###############",
"###########.oOOo.###############",
"###########.OOOO.##########...##",
"#########...OOooO..#######.Oo.##",
"#######..OOOOOOOOOo..####.Oo.###",
"#####..OOOOOOOOoOOOOo..#.OOo.###",
"####.OOO @OOOoOooOOOOo...OO.####",
"###.OOOOooOOOooOoOOOOOoXOOOO.###",
"##.OOOOOOOOOOOoOoOOOOOOOooOO.###",
"##..OOO@@OO.OOoOOOOOOOOoo..OO.##",
"####+@+@OO.OO.OOOOOOooO..##...##",
"#####+@+OOO.oo.OOoooo...########",
"#####..OOOOO..OOoo...###########",
"#######....OOO....##############",
"###########...##################",
"################################",
"################################",
"################################",
"################################",
"################################",
"################################",
"################################",
"################################",
"################################"
};
