/* XPM */
static char *result[] = {
/* columns rows colors chars-per-pixel */
"32 32 24 1 ",
"  c #38771F",
". c #2E732F",
"X c #367622",
"o c #337527",
"O c #377823",
"+ c #32762B",
"@ c #367B2A",
"# c #347A2D",
"$ c #357C2D",
"% c #2D7533",
"& c #297138",
"* c #28713A",
"= c #29733B",
"- c #317932",
"; c #327E37",
": c #277543",
"> c #257545",
", c #25794D",
"< c #277F50",
"1 c #2C8148",
"2 c #2C824B",
"3 c #2F874A",
"4 c #318340",
"5 c #308242",
/* pixels */
"                                ",
"     O@@O      O@@O             ",
"     @44@      @44@             ",
"   Xo-54@    Xo-54@             ",
"   o&=-@O    o&=-@O             ",
"   o&&o      o&&o      O@@O     ",
"   XooX      XooX      @44@     ",
"                     Xo-54@     ",
"                     o&=-@O     ",
"                     o&&o       ",
"                     XooX       ",
"     O@@O                       ",
"     @44@                       ",
"   Xo-54@      O@@OXo+#@OO@#+oX ",
"   o&=-@O      @44@o&:14@@41:&o ",
"$@Oo&&o        @45-.*><2;;2<>&o ",
"34@XooX        O@-=*.%>,22,>%oX ",
"35-oX            o&&oo&><<>&o   ",
"$-=&o            XooXXo%>>%oX   ",
" o&&o                  o&&o     ",
" XooX                  XooX     ",
"             O@@O    O@@O       ",
"             @44@    @44@       ",
"       O@@O  @45-oX  @45-oX     ",
"       @44@  O@-=&o  O@-=&o     ",
"     Xo-54@    o&&o    o&&o     ",
"     o&=-@O    XooX    XooX     ",
"     o&&o                       ",
"     XooX                       ",
"                                ",
"                                ",
"                                "
};
