/* XPM */
static char *result[] = {
/* columns rows colors chars-per-pixel */
"32 32 30 1 ",
"  c #9F2424",
". c #A72525",
"X c #A72626",
"o c #A82525",
"O c #AB2525",
"+ c #A82626",
"@ c #AA2626",
"# c #AB2626",
"$ c #AF2626",
"% c #B12626",
"& c #B22626",
"* c #B42626",
"= c #B62626",
"- c #B82626",
"; c #BB2626",
": c #BB2727",
"> c #BF2727",
", c #C02727",
"< c #C12727",
"1 c #C32727",
"2 c #C42727",
"3 c #C62727",
"4 c #C92828",
"5 c #CA2828",
"6 c #CC2828",
"7 c #CF2828",
"8 c #D12828",
"9 c #D52929",
"0 c #D72929",
"q c None",
/* pixels */
"qqqqqqqqqqqqqqqqqqqqqqqqqqqqqqqq",
"qqqqqqqqqqqqqqqqqqqqqqqqqqqqqqqq",
"qqqqqqqqqqqqqqqqqqqqqqqqqqqqqqqq",
"qqqqqqqqqqqqqqqqqqqqqqqqqqqqqqqq",
"qqqqqqqqqqqqqqqqqqqqqqqqqqqqqqqq",
"qqqqqqqqqqqqqqqqqqqqqqqqqqqqqqqq",
"qqqqqqqqqqqqqqqqo..oqqqqqqqqqqqq",
"qqqqqqqqqqqqqqqq####qqqqqqqqqqqq",
"qqqqqqqqqqqqo..#&**&#..oqqqqqqqq",
"qqqqqqqqqqqq###%:,,:%###qqqqqqqq",
"qqqqqqqqqqo#&**:4774:**&#oqqqqqq",
"qqqqqqqqqq#$=;>380083>;=$#qqqqqq",
"qqqqqqqqo#&=->58900985>-=&#oqqqq",
"qqqqqqqq#%:,,2689009862,,:%#qqqq",
"qqqqqqo#&:4776238008326774:&#oqq",
"qqqqqq.#*,70083<1221<38007,*#.qq",
"qqqqqq.#*,700981O  O189007,*#.qq",
"qqqqqq.#*,700981O  O189007,*#.qq",
"qqqqqq.#*,70083<1221<38007,*#.qq",
"qqqqqq.@%:4776238008326774:%@.qq",
"qqqqqq.+@%:,,2689009862,,:%@+.qq",
"qqqqqqo++@%=->58900985>-=%@++oqq",
"qqqqqqqq++@$=;>380083>;=$@++qqqq",
"qqqqqqqq.XX@%**:4774:**%@XX.qqqq",
"qqqqqqqq.XX+@##%:,,:%##@+XX.qqqq",
"qqqqqqqqo..++XX@%**%@XX++..oqqqq",
"qqqqqqqqqqqq+XX+@##@+XX+qqqqqqqq",
"qqqqqqqqqqqqo..++XX++..oqqqqqqqq",
"qqqqqqqqqqqqqqqq+XX+qqqqqqqqqqqq",
"qqqqqqqqqqqqqqqqo..oqqqqqqqqqqqq",
"qqqqqqqqqqqqqqqqqqqqqqqqqqqqqqqq",
"qqqqqqqqqqqqqqqqqqqqqqqqqqqqqqqq"
};
