/* XPM */
static char *result[] = {
/* columns rows colors chars-per-pixel */
"32 32 10 1 ",
"  c black",
". c #864B18",
"X c #88561C",
"o c #88601F",
"O c #DF7129",
"+ c #FF3B68",
"@ c #EB832B",
"# c #EF9631",
"$ c #EFA837",
"% c None",
/* pixels */
"%%%%%%%%%%%%%%%%%%%%%%%%%%%%%%%%",
"%%%%%%%%%%%%%%%%%%%%%%%%%%%%%%%%",
"%%%%%%%%%%%%%%%%%%%%%%%%%%%%%%%%",
"%%%%%%%%%%%%%%%%%%%%%%%%%%%%%%%%",
"%%%%%%%%%%%%%%%%%%%%%%%%%%%%%%%%",
"%%%%%%%%%%%%%%%%%%%%%%%%%%%%%%%%",
"%%%%%%%%%%%%%%%%%%%%%%%%%%%%%%%%",
"%%%%%%o%%%%%%%o%%%%%%%%%%%o%%%%%",
"%%%%%o$o%%%%%o$o%%%%%%%%%o$o%%%%",
"%%%%%o$$o%%%o$$o%%%%%%%%%oOo%%%%",
"%%%%%o$ooooo$$$o%%%%%%%%o$#o%%%%",
"%%%%o$$$$$$$$$$o%%%%%%%%oOX%%%%%",
"%%%%o$$ $$$ $$$X%%%%%%%o$#.%%%%%",
"%%%%X$$ $$$ $$$X%%%%%%oO#X%%%%%%",
"%%%%X$$$+$$$$$#.oooooo$$X%%%%%%%",
"%%%%%X$$$$$$##.@O$O$O$$#.%%%%%%%",
"%%%%%%........@#O$O$O$$X%%%%%%%%",
"%%%%%%%%.@@@@##$$$$$$$$X%%%%%%%%",
"%%%%%%%%%X###$$$$$$$$$$X%%%%%%%%",
"%%%%%%%%%.$$$$$$$$$$$##.%%%%%%%%",
"%%%%%%%%%%XXX#XXXXXXX#X%%%%%%%%%",
"%%%%%%%%%.OX##X%%%.@X#X%%%%%%%%%",
"%%%%%%%%%.@X#X%%%%.X##X%%%%%%%%%",
"%%%%%%%%%..XOX%%%%%XXX%%%%%%%%%%",
"%%%%%%%%%%%X#X%%%%%%%%%%%%%%%%%%",
"%%%%%%%%%%%XXX%%%%%%%%%%%%%%%%%%",
"%%%%%%%%%%%%%%%%%%%%%%%%%%%%%%%%",
"%%%%%%%%%%%%%%%%%%%%%%%%%%%%%%%%",
"%%%%%%%%%%%%%%%%%%%%%%%%%%%%%%%%",
"%%%%%%%%%%%%%%%%%%%%%%%%%%%%%%%%",
"%%%%%%%%%%%%%%%%%%%%%%%%%%%%%%%%",
"%%%%%%%%%%%%%%%%%%%%%%%%%%%%%%%%"
};
