/* XPM */
static char *result[] = {
/* columns rows colors chars-per-pixel */
"32 32 39 1 ",
"  c #6D6048",
". c #796747",
"X c #856F4C",
"o c #88724F",
"O c #927646",
"+ c #967847",
"@ c #9F7D45",
"# c #9E7E4B",
"$ c #847153",
"% c #867353",
"& c #8F7852",
"* c #9B7F56",
"= c #A07E47",
"- c #A1804A",
"; c #A1804C",
": c #A08150",
"> c #A28351",
", c #A48555",
"< c #AB8850",
"1 c #AB8851",
"2 c #A6875B",
"3 c #A4885F",
"4 c #B5915A",
"5 c #A98D62",
"6 c #AB8D63",
"7 c #B09165",
"8 c #B29366",
"9 c #BD9961",
"0 c #BA9865",
"q c #B89869",
"w c #BB9A69",
"e c #BF9D6C",
"r c #C19E68",
"t c #C49F68",
"y c #C7A36F",
"u c #C8A26B",
"i c #CEA871",
"p c #D1AB74",
"a c None",
/* pixels */
"aa@@@@@@@@@@@@@@@@@@@@@@@@@O. aa",
"aa<111111111111111111111111>&$aa",
"@<9ttttttttttttttttttttttttrw5$ ",
"@1tppppppppppppppppppppppppppq% ",
"@1tppppppppppppppppppppppppppq% ",
"@1tppiuttttttttttttttttttuippq% ",
"@1tppu41111111111111111114uppq% ",
"@1tppt1=-;;;;;;;;;;;;;;-=1tppq% ",
"@1tppt1-,22222222222222,-1tppq% ",
"@1tppt1;2678888888888762;1tppq% ",
"@1tppt1;27eyyyyyyyyyye72;1tppq% ",
"@1tppt1#*30tttttttttt03*#1tppq% ",
"@1tppt1+Xo:1111111111:oX+1tppq% ",
"@1tppt1+Xo:1111111111:oX+1tppq% ",
"@1tppt1#*30tttttttttt03*#1tppq% ",
"@1tppt1;28yppppppppppy82;1tppq% ",
"@1tppt1;28yppppppppppy82;1tppq% ",
"@1tppt1#*30tttttttttt03*#1tppq% ",
"@1tppt1+Xo:1111111111:oX+1tppq% ",
"@1tppt1+Xo:1111111111:oX+1tppq% ",
"@1tppt1#*30tttttttttt03*#1tppq% ",
"@1tppt1;27eyyyyyyyyyye72;1tppq% ",
"@1tppt1;2678888888888762;1tppq% ",
"@1tppt1-,22222222222222,-1tppq% ",
"@1tppt1=-;;;;;;;;;;;;;;-=1tppq% ",
"@1tppu41111111111111111114uppq% ",
"@1tppiuttttttttttttttttttuippq% ",
"O>rppppppppppppppppppppppppppq% ",
".&wppppppppppppppppppppppppppq% ",
" $5qqqqqqqqqqqqqqqqqqqqqqqqqq5$ ",
"aa$%%%%%%%%%%%%%%%%%%%%%%%%%%$aa",
"aa                            aa"
};
