/* XPM */
static char *result[] = {
/* columns rows colors chars-per-pixel */
"26 32 118 2 ",
"   c #081A15",
".  c #091B15",
"X  c #091C15",
"o  c #091C16",
"O  c #0A1F17",
"+  c #091E18",
"@  c #0B2017",
"#  c #0E2B1C",
"$  c #0B2723",
"%  c #0C2A26",
"&  c #152523",
"*  c #152725",
"=  c #0E302D",
"-  c #143B23",
";  c #103E3C",
":  c #30242A",
">  c #3C262F",
",  c #4A2D33",
"<  c #4B2D33",
"1  c #4F3034",
"2  c #5B3635",
"3  c #663937",
"4  c #673937",
"5  c #603B3A",
"6  c #6A3B38",
"7  c #703F38",
"8  c #1D4523",
"9  c #1E4925",
"0  c #194A29",
"q  c #1B512C",
"w  c #164A32",
"e  c #10403E",
"r  c #12453E",
"t  c #1E5930",
"y  c #195539",
"u  c #21552B",
"i  c #205F33",
"p  c #21693F",
"a  c #2A753A",
"s  c #28793D",
"d  c #297A3E",
"f  c #69413C",
"g  c #714237",
"h  c #7B4739",
"j  c #7E463B",
"k  c #124544",
"l  c #134B4A",
"z  c #134C4C",
"x  c #144E4C",
"c  c #144F4C",
"v  c #155048",
"b  c #16574D",
"n  c #1A6149",
"m  c #1B664F",
"M  c #1C694F",
"N  c #1C6A4F",
"B  c #1D6C4E",
"V  c #1E6E4F",
"C  c #1D6B50",
"Z  c #1D6D50",
"A  c #1E6F50",
"S  c #1F7050",
"D  c #21744F",
"F  c #21754F",
"G  c #21764F",
"H  c #23794F",
"J  c #814B39",
"K  c #844A3A",
"L  c #844A3E",
"P  c #8C5040",
"I  c #9C5B41",
"U  c #9A5C46",
"Y  c #A05E43",
"T  c #A56347",
"R  c #A1614A",
"E  c #2E8844",
"W  c #27814E",
"Q  c #2C8A4D",
"!  c #2E8D4C",
"~  c #2E8E4C",
"^  c #2E8F4C",
"/  c #32964B",
"(  c #32974B",
")  c #30924C",
"_  c #33984B",
"`  c #34984B",
"'  c #34994B",
"]  c #369B4B",
"[  c #369C4B",
"{  c #379D4B",
"}  c #389E4B",
"|  c #399F4C",
" . c #3BA14C",
".. c #3CA34C",
"X. c #3DA34C",
"o. c #3DA44C",
"O. c #3FA64C",
"+. c #40A74C",
"@. c #42A94C",
"#. c #47AF4D",
"$. c #4BB34D",
"%. c #4BB44D",
"&. c #4EB74E",
"*. c #4FB94E",
"=. c #50B94E",
"-. c #51BB4E",
";. c #52BC4E",
":. c #53BD4E",
">. c #54BE4E",
",. c #54BF4E",
"<. c #55BF4E",
"1. c #56C04F",
"2. c #57C14F",
"3. c #58C34F",
"4. c #59C44F",
"5. c #5AC44F",
"6. c #5AC54F",
"7. c None",
/* pixels */
"7.7.7.7.7.7.7.7.7.7.7.7.7.7.7.7.7.7.7.7.7.7.7.7.7.7.",
"7.7.7.7.7.7.7.7.7.7.7.7.7.7.7.7.7.7.7.7.7.7.7.7.7.7.",
"7.7.7.7.7.7.7.7.7.7.7.7.7.7.7.7.7.7.7.7.7.7.7.7.7.7.",
"7.7.7.7.7.7.7.7.7.7.7.7.7.7.7.7.7.7.7.7.7.7.7.7.7.7.",
"7.7.7.7.7.7.7.7.0 s s . _ i   . 7.7.7.7.7.7.7.7.7.7.",
"7.7.7.7.7.7.7.- a 6.6. .6.;.u X.8 7.7.7.7.7.7.7.7.7.",
"7.7.7.7.7.7.. 6.6.6.6.6.6.6.6.6.6.q   7.7.7.7.7.7.7.",
"7.7.7.7.7.7.E 5.6.6.6.6.6.6.6.6.2.6.9 t 7.7.7.7.7.7.",
"7.7.7.7.7.@ E ..O.6.6.6.6.6.6.6.6.>.6.# 7.7.7.7.7.7.",
"7.7.7.7.7.@ @.' >.6.6.6.6.6.6.6.-.6.6.} @ 7.7.7.7.7.",
"7.7.7.7.X ` <.*.1.6.6.6.6.6.6.6.+.6.4.6._ 7.7.7.7.7.",
"7.7.7.7.X d %.6.6.6.o.3.6.6.,.=._ | _ %.7.7.7.7.7.7.",
"7.7.7.7.7._ %...6.+.>.3.6.6.6.>.[ | 3.%.6.7.7.7.7.7.",
"7.7.7.7.X ! _ 4.6.' #.;.6.:.;.6.2.&._ _ 7.7.7.7.7.7.",
"7.7.7.7.7.O _ 6.{ ' X.$.] 6.6.=.+.>._ w + 7.7.7.7.7.",
"7.7.7.7.7.S D _ ) ^ _ _ _ _ _ _ ( _ ~ p 7.7.7.7.7.7.",
"7.7.7.7.7.o y A _ S H / W W / G Q F V = 7.7.7.7.7.7.",
"7.7.7.7.7.7.e B n C M A A ~ Z A c b ; 7.7.7.7.7.7.7.",
"7.7.7.7.7.7.7.$ k v m Z x M N r l $ 7.7.7.7.7.7.7.7.",
"7.7.7.7.7.7.7.7.7.e z e : * & % . 7.7.7.7.7.7.7.7.7.",
"7.7.7.7.7.7.7.7.7.7.7.g 3 4 h 7.7.7.7.7.7.7.7.7.7.7.",
"7.7.7.7.7.7.7.7.7.7.7.R K I 7 7.7.7.7.7.7.7.7.7.7.7.",
"7.7.7.7.7.7.7.7.7.7.7.6 j P J 7.7.7.7.7.7.7.7.7.7.7.",
"7.7.7.7.7.7.7.7.7.7.7.Y 1 , Y 7.7.7.7.7.7.7.7.7.7.7.",
"7.7.7.7.7.7.7.7.7.7.f 2 L 5 < U 7.7.7.7.7.7.7.7.7.7.",
"7.7.7.7.7.7.7.7.7.7.7.7.> T 7.7.7.7.7.7.7.7.7.7.7.7.",
"7.7.7.7.7.7.7.7.7.7.7.7.7.7.7.7.7.7.7.7.7.7.7.7.7.7.",
"7.7.7.7.7.7.7.7.7.7.7.7.7.7.7.7.7.7.7.7.7.7.7.7.7.7.",
"7.7.7.7.7.7.7.7.7.7.7.7.7.7.7.7.7.7.7.7.7.7.7.7.7.7.",
"7.7.7.7.7.7.7.7.7.7.7.7.7.7.7.7.7.7.7.7.7.7.7.7.7.7.",
"7.7.7.7.7.7.7.7.7.7.7.7.7.7.7.7.7.7.7.7.7.7.7.7.7.7.",
"7.7.7.7.7.7.7.7.7.7.7.7.7.7.7.7.7.7.7.7.7.7.7.7.7.7."
};
